<svg width="400" height="400" viewBox="0 0 400 400" fill="none" xmlns="http://www.w3.org/2000/svg">
<circle cx="200" cy="200" r="200" fill="#F5BAC2"/>
<path d="M321.469 199.445V207.327C320.113 206.281 320.113 200.406 321.469 199.445Z" fill="white"/>
<path d="M267.062 164.475C265.424 157.413 265.819 151.989 262.91 148.854C265.424 144.249 268.305 144.136 271.441 140.888C268.305 142.187 270 139.023 271.441 135.888C267.401 134.927 272.034 139.193 267.853 138.769C268.616 135.888 267.853 134.616 267.062 131.707C270.791 129.108 275.932 122.102 282.147 126.65C280.283 131.904 284.746 134.729 287.09 138.006C287.768 140.379 286.017 140.294 285.622 141.594C287.401 143.458 287.627 139.786 289.294 141.594C289.294 142.865 290.254 143.176 290.028 144.447C285.735 146.255 284.463 152.978 285 157.356C282.938 157.187 282.288 155.746 281.384 154.419C280.396 158.147 286.328 160.944 286.441 165.944C281.695 171.537 284.746 177.046 281.384 183.034C276.921 182.046 273.955 179.56 274.407 173.712C275.622 173.515 278.701 171.565 279.322 173.006C280.283 172.441 280.283 170.662 280.735 169.475C275.622 166.565 272.542 161.452 269.237 156.565C266.639 158.825 271.328 164.362 267.062 164.475Z" fill="white"/>
<path d="M258.531 104.588C256.045 104.955 255.876 103.062 255.734 101.057C256.356 102.554 258.475 102.554 258.531 104.588Z" fill="white"/>
<path d="M255.085 129.447C255.085 128.431 251.384 129.589 251.497 130.916C249.943 129.786 252.768 127.103 254.322 126.651C256.808 128.854 260.085 130.295 263.531 131.707C261.158 133.826 253.729 131.001 255.085 129.447Z" fill="white"/>
<path d="M252.91 120.265C248.757 117.215 246.215 124.587 243.616 123.118C245.282 119.983 248.418 118.26 250.734 115.943C250 112.808 247.006 116.339 245.791 114.503C246.102 112.356 248.616 112.215 247.994 108.825C251.582 109.192 252.203 106.593 256.497 107.356C257.26 113.118 265.424 114.926 265.028 119.587C261.638 118.825 260.989 119.474 257.91 118.09C255.424 118.26 260.424 120.039 257.91 120.265C254.661 119.842 258.7 116.198 255.734 115.237C253.023 115.689 251.497 117.638 252.91 120.265Z" fill="white"/>
<path d="M230.085 312.073C228.362 309.417 225.283 307.92 223.588 305.067C225.707 304.078 229.181 307.977 232.26 308.485C232.091 310.152 232.401 311.282 233.531 311.508C232.599 312.977 229.746 314.926 227.995 313.542C228.249 312.723 228.87 312.045 230.085 312.073Z" fill="black"/>
<path d="M221.554 319.277C219.887 316.848 220.791 311.763 225.085 312.836C225.198 313.034 225.282 313.26 225.367 313.458C226.554 316.452 224.717 319.079 221.554 319.277Z" fill="black"/>
<path d="M220.028 295.717C221.469 290.576 226.949 291.169 230.537 293.542C231.497 294.164 232.316 294.926 232.91 295.717C230.848 296.621 231.695 298.712 233.531 299.277C229.322 300.802 227.429 294.164 220.678 295.548C220.48 295.604 220.254 295.661 220.028 295.717Z" fill="black"/>
<path d="M192.966 242.921C186.921 242.469 177.542 230.803 177.26 225.831C177.09 222.921 180.085 217.526 181.582 215.859C183.898 213.204 196.751 204.503 202.26 205.181C206.921 205.718 215.311 213.401 216.554 217.978C217.966 223.797 216.271 233.458 213.588 239.39C206.751 237.723 197.966 243.26 192.966 242.921Z" fill="white"/>
<path d="M221.554 305.067C216.045 304.87 213.531 301.762 210.537 299.135L211.356 298.203C212.684 299.192 214.096 300.124 215.169 301.367C223.729 299.7 226.921 303.203 230.847 304.276C228.051 300.717 224.152 299.446 220.085 298.768L220.678 295.548C227.429 294.163 229.322 300.802 233.531 299.276C231.695 298.711 230.847 296.621 232.91 295.717C232.316 294.926 231.497 294.163 230.537 293.542L231.299 292.525C233.531 294.248 235.791 296 238.644 297.186C240.791 297.694 240 295.152 242.175 295.717C239.746 293.146 233.333 294.418 232.91 290.011C236.186 293.542 242.712 292.468 246.412 292.186C246.78 290.632 245.452 290.83 244.407 290.774C249.633 285.745 259.152 295.887 262.91 290.011C263.955 290.435 264.661 291.056 265.678 291.451C265.989 289.276 268.051 290.774 271.441 290.011C271.893 291.903 268.051 289.559 268.616 291.451C271.582 293.711 274.661 287.666 278.559 290.774C278.87 292.242 277.486 292.129 276.441 292.186C277.938 295.237 277.768 293.146 280.734 292.864C277.486 298.231 273.333 302.553 267.062 305.067C265.989 307.497 269.604 305.406 269.237 307.101C263.983 318.514 243.616 314.728 239.265 327.101C233.531 328.485 230.847 325.887 225.706 325.011L221.554 319.276C224.717 319.079 226.554 316.451 225.367 313.457L227.994 313.542C229.746 314.926 232.599 312.977 233.531 311.508C232.401 311.282 232.09 310.152 232.26 308.485C229.181 307.977 225.706 304.079 223.587 305.067H221.554Z" fill="white"/>
<path d="M210.085 297.186C213.136 298.005 216.667 298.174 220.085 298.767C224.153 299.445 228.051 300.717 230.848 304.276C226.921 303.203 223.729 299.7 215.17 301.366C214.096 300.123 212.684 299.191 211.356 298.202C210.932 297.892 210.48 297.553 210.085 297.186Z" fill="black"/>
<path d="M221.554 305.067C217.825 310.886 205.819 302.157 203.672 295.717C206.667 296.169 208.701 297.553 210.537 299.135C213.531 301.762 216.045 304.869 221.554 305.067Z" fill="black"/>
<path d="M199.435 298.515C205.17 297.385 208.333 304.786 211.497 308.487C207.373 308.233 201.695 303.176 199.435 298.515Z" fill="black"/>
<path d="M197.316 309.954C195.904 308.767 194.463 306.677 192.966 309.247C191.271 309.473 192.175 307.213 190.904 307.101C191.836 304.332 198.277 306.988 197.966 302.835C201.808 303.287 204.463 304.841 205.056 308.485C203.079 308.287 202.881 306.027 200.141 306.423C199.943 308.428 198.842 308.117 197.316 309.954Z" fill="black"/>
<path d="M136.639 273.627C138.136 273.231 137.599 274.983 138.673 275.039C146.497 274.192 150.537 264.672 157.204 265.096C162.034 265.293 162.373 271.96 167.938 270.039C167.119 275.745 161.187 276.593 157.995 280.068C161.271 284.39 159.096 290.632 161.639 294.983C162.966 294.248 162.684 291.847 165.226 292.186C165.339 294.192 163.447 294.361 163.729 296.395C165.424 298.457 169.492 298.288 170.904 300.661C178.955 297.525 184.351 304.022 189.351 307.808C184.774 309.361 185.17 304.898 181.582 303.514C176.469 301.593 170.029 305.068 163.729 304.277C159.661 303.768 154.209 301.875 149.464 305.717C150.339 300.463 151.271 295.096 153.616 291.452C151.667 281.762 138.899 282.949 136.639 273.627Z" fill="black"/>
<path d="M122.287 299.983C119.124 300.039 120.508 297.525 121.581 296.395C123.163 296.338 121.948 298.966 122.287 299.983Z" fill="black"/>
<path d="M199.435 298.514C201.695 303.175 207.373 308.232 211.497 308.486C208.333 304.785 205.17 297.384 199.435 298.514ZM192.966 309.249C194.463 306.678 195.904 308.768 197.316 309.955C198.842 308.119 199.944 308.429 200.141 306.424C202.881 306.028 203.079 308.288 205.057 308.486C204.463 304.842 201.808 303.288 197.966 302.836C198.277 306.989 191.836 304.333 190.904 307.102C192.175 307.215 191.271 309.475 192.966 309.249ZM161.639 294.983C159.096 290.633 161.271 284.39 157.994 280.068C161.187 276.593 167.119 275.746 167.938 270.04C162.373 271.961 162.034 265.294 157.203 265.096C150.537 264.672 146.497 274.192 138.672 275.04C137.599 274.983 138.136 273.232 136.638 273.627C138.898 282.949 151.667 281.763 153.616 291.452C151.271 295.096 150.339 300.463 149.463 305.718C154.209 301.876 159.661 303.768 163.729 304.277C170.028 305.068 176.469 301.593 181.582 303.514C185.17 304.898 184.774 309.362 189.35 307.808C184.35 304.023 178.955 297.525 170.904 300.661C169.492 298.288 165.424 298.458 163.729 296.396C163.446 294.362 165.339 294.192 165.226 292.186C162.684 291.848 162.966 294.249 161.639 294.983ZM121.582 296.396C120.509 297.525 119.124 300.04 122.288 299.983C121.949 298.966 123.164 296.339 121.582 296.396ZM118.814 293.599C118.927 294.192 119.435 294.249 119.435 294.983C122.655 294.107 125.819 290.209 124.548 287.13C123.757 285.181 121.469 287.356 120.226 287.13C121.017 285.689 122.288 284.446 123.757 283.571C119.774 275.04 127.966 267.13 135.989 265.746C139.35 263.203 139.435 261.622 140.085 256.509C140.622 252.554 142.684 250.011 144.633 247.469C146.13 245.463 147.514 243.458 147.994 240.802C148.955 235.068 144.153 232.299 144.463 225.831C144.605 222.638 147.994 219.531 148.701 216.537C150.028 211.424 147.853 205.181 152.373 200.831C156.582 206.057 161.638 208.627 162.288 215.859C162.966 222.638 157.797 231.028 165.904 235.068C165.989 236.876 164.802 237.271 164.463 238.684C165.339 241.028 167.74 241.932 168.701 244.418C169.04 246.622 166.497 246 167.316 248.684C174.011 251.396 184.407 256.085 190.113 262.187C192.288 262.554 192.627 260.972 195.113 261.48C194.463 265.831 201.921 262.271 203.672 264.39C203.079 268.542 207.373 267.78 208.672 270.04C209.237 271.961 205.283 269.503 205.706 271.509C208.927 272.667 212.401 273.345 216.554 273.627C215.848 275.124 213.785 275.124 211.497 275.04C212.684 276.509 212.684 279.079 213.588 280.746C217.627 280.859 220.254 279.729 222.175 277.921C220.141 281.961 229.746 277.271 230.848 282.836C228.814 281.113 225.141 280.237 222.994 282.102C230.509 282.667 232.91 288.316 239.266 290.011C235.735 292.186 233.22 287.045 230.085 286.424C228.362 286.65 231.328 287.864 231.497 288.571C230.141 290.633 226.921 286.226 225.085 288.571C227.429 289.616 229.35 291.057 231.3 292.525L230.537 293.542C226.949 291.17 221.469 290.576 220.028 295.718C220.254 295.661 220.48 295.605 220.678 295.548L220.085 298.768C216.667 298.175 213.136 298.006 210.085 297.186C210.48 297.554 210.932 297.893 211.356 298.203L210.537 299.136C208.701 297.554 206.667 296.17 203.672 295.718C205.819 302.158 217.825 310.887 221.554 305.068H223.588C225.283 307.921 228.362 309.418 230.085 312.073C228.87 312.073 228.249 312.723 227.994 313.542L225.367 313.458C225.283 313.26 225.198 313.034 225.085 312.836C220.791 311.763 219.887 316.848 221.554 319.277L225.706 325.011C222.627 327.864 219.887 327.299 214.379 327.102C215.198 323.881 211.836 324.898 211.497 322.808C210.509 323.571 209.322 323.938 208.672 325.011C206.808 324.898 207.684 322.187 205.706 322.045C198.22 323.006 196.356 328.486 195.113 334.277C193.418 334.531 193.418 332.949 191.526 333.514C193.729 338.429 198.983 331.452 205.057 333.514C196.017 335.492 187.627 339.22 181.582 332.073C161.638 335.887 159.096 322.186 142.429 322.808C135.085 319.362 135.989 307.921 124.548 308.486C121.017 305.746 117.994 302.667 115.989 298.514C115.848 295.661 118.814 295.718 118.164 292.186C118.616 292.299 118.814 292.751 118.814 293.599Z" fill="white"/>
<path d="M105.141 260.745H105.932V269.276H105.141V260.745Z" fill="white"/>
<path d="M105.141 242.13C106.186 242.469 105.819 243.994 105.932 245.096C107.909 265.802 133.22 256.452 141.638 247.215L144.632 247.469C142.683 250.011 140.621 252.554 140.084 256.508C139.435 261.621 139.35 263.203 135.988 265.746C127.966 267.13 119.774 275.039 123.757 283.571C122.288 284.446 121.016 285.689 120.226 287.13C121.468 287.356 123.757 285.181 124.548 287.13C125.819 290.209 122.655 294.107 119.435 294.983C119.435 294.249 118.926 294.192 118.813 293.599C118.813 292.751 118.615 292.299 118.163 292.186C115.734 283.768 109.322 279.616 104.491 273.627C104.491 271.932 105.706 271.508 105.141 269.277H105.932V260.746H105.141C102.853 255.322 102.457 247.525 105.141 242.13Z" fill="black"/>
<path d="M105.141 230.802C105.932 231.875 106.638 227.017 107.344 225.83C113.955 224.051 118.983 220.774 125.932 219.333C129.717 222.384 140.423 232.723 141.638 236.48C142.909 241.028 139.971 243.514 141.638 247.214C133.22 256.452 107.909 265.802 105.932 245.096C105.819 243.994 106.186 242.469 105.141 242.13C105.113 238.344 105.706 233.655 104.491 230.802H105.141Z" fill="white"/>
<path d="M88.7856 149.559C91.1867 148.147 92.1189 145.322 95.2827 144.446C96.1302 142.186 92.9099 143.966 93.8138 141.593C97.5426 139.531 100.141 135.491 104.492 135.887C108.531 142.864 117.995 143.825 121.582 149.559C119.887 153.147 118.362 159.135 120.226 162.271C118.503 164.644 113.221 163.486 109.52 163.684V166.621C107.91 165.887 107.175 164.192 105.141 163.684C102.599 165.887 99.2658 167.271 95.989 168.712C94.8308 168.712 95.65 170.661 94.4635 170.802C94.068 168.655 95.7912 168.797 95.2827 166.621C92.7121 163.486 89.2375 155.689 87.4014 149.559H88.7856Z" fill="white"/>
<path d="M90.9892 113.825C95.2547 113.063 98.9553 113.063 102.147 113.882C96.3846 115.803 92.3168 114.955 89.04 113.006V112.95C89.6332 113.317 90.2829 113.628 90.9892 113.825Z" fill="black"/>
<path d="M267.063 164.474C271.328 164.361 266.639 158.825 269.238 156.565C272.543 161.452 275.622 166.565 280.735 169.474C280.283 170.661 280.283 172.441 279.323 173.005C278.701 171.565 275.622 173.514 274.407 173.712C273.955 179.559 276.921 182.045 281.385 183.034C284.746 177.045 281.695 171.537 286.441 165.943C286.328 160.943 280.396 158.147 281.385 154.418C282.289 155.746 282.938 157.186 285 157.356C284.464 152.977 285.735 146.254 290.029 144.446C290.255 143.175 289.294 142.864 289.294 141.593C287.628 139.785 287.402 143.457 285.622 141.593C286.017 140.294 287.769 140.378 287.091 138.005C284.746 134.729 280.283 131.904 282.147 126.65C275.933 122.102 270.791 129.107 267.063 131.706C267.854 134.616 268.616 135.887 267.854 138.768C272.034 139.192 267.402 134.926 271.441 135.887C270 139.022 268.306 142.186 271.441 140.887C268.306 144.135 265.424 144.248 262.91 148.853C265.82 151.989 265.424 157.412 267.063 164.474ZM255.735 101.056C255.876 103.062 256.046 104.955 258.532 104.587C258.475 102.554 256.356 102.554 255.735 101.056ZM251.498 130.915C251.385 129.587 255.085 128.429 255.085 129.446C253.729 131 261.159 133.825 263.532 131.706C260.085 130.294 256.808 128.853 254.323 126.65C252.769 127.102 249.944 129.785 251.498 130.915ZM243.616 123.118C246.215 124.587 248.758 117.215 252.91 120.265C251.498 117.638 253.023 115.689 255.735 115.237C258.701 116.198 254.662 119.842 257.91 120.265C260.424 120.039 255.424 118.26 257.91 118.09C260.989 119.474 261.639 118.825 265.029 119.587C265.424 114.926 257.26 113.118 256.498 107.356C252.204 106.593 251.582 109.192 247.995 108.825C248.616 112.215 246.102 112.356 245.791 114.503C247.006 116.339 250 112.808 250.735 115.943C248.419 118.26 245.283 119.983 243.616 123.118ZM177.26 225.83C177.543 230.802 186.921 242.469 192.967 242.921C197.967 243.26 206.752 237.723 213.588 239.39C216.272 233.457 217.967 223.796 216.554 217.977C215.311 213.401 206.921 205.717 202.26 205.181C196.752 204.503 183.899 213.203 181.582 215.859C180.085 217.525 177.091 222.921 177.26 225.83ZM95.283 144.446C92.1191 145.322 91.1869 148.147 88.7858 149.559H87.4016C87.4016 136.395 81.0457 129.644 76.6954 120.915C78.2491 112.808 72.3169 105.152 78.8705 103.796C84.0965 102.836 84.718 110.039 89.0683 112.949V113.005C92.3169 114.955 96.3847 115.802 102.147 113.881C102.204 113.853 102.26 113.825 102.345 113.825C102.402 113.881 102.458 113.938 102.486 113.994C106.215 115.039 109.238 117.299 111.611 120.915C113.814 124.277 112.854 127.441 115.989 129.446C118.164 131.113 122.204 130.294 124.548 131.706C133.419 136.763 137.486 146.96 140.876 153.712C141.046 153.768 141.215 153.796 141.356 153.853C141.865 153.712 142.373 153.627 142.882 153.514C142.967 153.514 143.051 153.486 143.136 153.486C143.616 153.401 144.125 153.316 144.633 153.26H144.831C145.933 153.147 147.034 153.09 148.136 153.09C149.916 152.469 151.667 151.791 153.616 151.734C159.351 151.339 164.153 154.22 169.492 153.09C172.571 152.441 174.803 148.853 177.995 148.062C182.232 147.045 186.582 148.994 190.904 148.062C198.221 146.254 199.859 137.073 205.707 133.825C218.39 134.729 221.498 126.169 226.526 119.587C226.243 115.491 223.221 112.723 223.588 108.118C224.379 100.548 233.334 96.1693 236.498 90.9433C236.385 88.401 236.639 86.2823 237.176 84.3897V83.8812C237.176 83.8812 237.317 83.7117 237.402 83.6552C240.424 74.7287 249.916 72.2428 252.147 62.384C260.424 65.6044 267.402 67.6948 274.407 61.7061C283.701 63.5987 281.95 74.9829 286.441 80.9998C290.424 86.5083 296.469 85.8303 299.972 91.6778C300.763 95.9433 297.995 100.491 298.503 104.587C299.068 109.277 304.351 112.977 305 118.09C305.311 121.282 303.758 124.333 304.238 127.441C305 132.017 311.102 135.802 312.119 140.887C312.938 145.265 310.622 149.616 311.328 153.09C312.882 159.503 322.345 161 323.532 166.621C324.238 169.87 321.469 175.576 322.091 180.943C322.995 187.892 326.921 193.09 321.469 199.446C320.113 200.407 320.113 206.282 321.469 207.328C323.39 211.537 322.684 214.672 321.385 217.582C321.13 218.655 320.565 219.729 319.916 220.83C319.887 220.83 319.888 220.859 319.888 220.859C319.803 221 319.69 221.141 319.605 221.311C319.577 221.367 319.52 221.424 319.492 221.508C319.379 221.65 319.294 221.791 319.181 221.96C318.588 223.203 318.08 224.474 317.769 225.83C316.921 229.926 318.673 235.265 317.769 239.39C316.639 244.842 311.639 248.118 311.328 252.215C311.102 257.554 316.017 262.017 312.882 266.424C310.311 270.039 305.368 268.825 303.588 270.039C301.724 271.226 299.097 274.051 297.543 276.819C297.26 278.005 297.034 279.248 296.78 280.52C296.752 280.774 296.695 281.028 296.639 281.311L296.554 281.734C296.441 282.271 296.328 282.78 296.215 283.288C296.187 284.277 296.102 285.294 295.678 286.424C293.503 292.412 286.837 294.7 280.735 299.983C272.034 307.497 269.859 319.813 256.498 319.277C255.622 319.079 255.226 319.418 255.085 319.955C245.537 321.282 244.492 331.847 235.735 332.073C232.684 332.186 230.085 329.446 226.526 329.955C220.029 330.746 213.729 342.356 205.707 334.926V334.277C205.961 333.655 205.509 333.514 205.057 333.514C198.984 331.452 193.729 338.429 191.526 333.514C193.419 332.949 193.419 334.531 195.113 334.277C196.356 328.486 198.221 323.005 205.707 322.045C207.684 322.186 206.808 324.898 208.673 325.011C209.323 323.938 210.509 323.57 211.498 322.808C211.837 324.898 215.198 323.881 214.379 327.102C219.887 327.299 222.628 327.864 225.707 325.011C230.848 325.887 233.532 328.486 239.266 327.102C243.616 314.729 263.984 318.514 269.238 307.102C269.605 305.407 265.989 307.497 267.063 305.068C273.334 302.554 277.486 298.231 280.735 292.864C277.769 293.147 277.938 295.237 276.441 292.186C277.486 292.13 278.871 292.243 278.56 290.774C274.661 287.666 271.582 293.712 268.616 291.452C268.051 289.559 271.893 291.904 271.441 290.011C268.051 290.774 265.989 289.277 265.678 291.452C264.662 291.056 263.955 290.435 262.91 290.011C259.153 295.887 249.633 285.746 244.407 290.774C245.452 290.83 246.78 290.633 246.413 292.186C242.712 292.469 236.187 293.542 232.91 290.011C233.334 294.418 239.746 293.147 242.176 295.717C240 295.152 240.791 297.695 238.645 297.186C235.791 296 233.532 294.248 231.3 292.525C229.351 291.056 227.43 289.616 225.085 288.57C226.921 286.226 230.142 290.633 231.498 288.57C231.328 287.864 228.362 286.65 230.085 286.424C233.221 287.045 235.735 292.186 239.266 290.011C232.91 288.316 230.509 282.666 222.995 282.102C225.142 280.237 228.814 281.113 230.848 282.836C229.746 277.271 220.142 281.96 222.176 277.921C220.255 279.729 217.628 280.859 213.588 280.746C212.684 279.079 212.684 276.508 211.498 275.039C213.786 275.124 215.848 275.124 216.554 273.627C212.402 273.344 208.927 272.666 205.707 271.508C205.283 269.503 209.238 271.96 208.673 270.039C207.373 267.779 203.08 268.542 203.673 264.39C201.921 262.271 194.464 265.83 195.113 261.48C192.628 260.972 192.289 262.554 190.113 262.186C184.407 256.085 174.012 251.395 167.317 248.683C166.498 246 169.04 246.621 168.701 244.418C167.741 241.932 165.339 241.028 164.464 238.683C164.803 237.271 165.989 236.876 165.904 235.068C157.797 231.028 162.967 222.638 162.289 215.859C161.639 208.627 156.582 206.056 152.373 200.83C147.854 205.181 150.029 211.424 148.701 216.537C147.995 219.531 144.605 222.638 144.464 225.83C144.153 232.299 148.955 235.068 147.995 240.802C147.515 243.457 146.13 245.463 144.633 247.469L141.639 247.215C139.972 243.514 142.91 241.028 141.639 236.48C140.424 232.723 129.718 222.384 125.933 219.333C118.984 220.774 113.955 224.051 107.345 225.83C106.639 227.017 105.933 231.876 105.142 230.802H104.492C102.599 226.169 109.323 223.373 110.226 218.599C112.176 209.051 106.187 204.305 98.1361 201.537C102.769 189.305 93.814 183.316 94.4638 170.802C95.6502 170.661 94.831 168.712 95.9892 168.712C99.266 167.271 102.599 165.887 105.142 163.683C107.176 164.192 107.91 165.887 109.52 166.621V163.683C113.221 163.486 118.503 164.644 120.226 162.271C118.362 159.135 119.887 153.147 121.582 149.559C117.995 143.825 108.532 142.864 104.492 135.887C100.142 135.491 97.5428 139.531 93.814 141.593C92.9101 143.966 96.1304 142.186 95.283 144.446Z" fill="black"/>
</svg>
